
******* Battle Of Britain.1969.x264.AC3(5.1).Multisub.mkv-Zen_Bud ******

Format                           : Matroska
File size                        : 1.94 GiB
Duration                         : 2h 6mn
Overall bit rate                 : 2 192 Kbps
Writing application              : HandBrake svn3568
Writing library                  : libmkv 0.6.4.1

Video

Format                           : AVC
Duration                         : 2h 6mn
Bit rate                         : 1 700 Kbps
Width                            : 718 pixels
Height                           : 434 pixels
Display aspect ratio             : 2.35:1
Stream size                      : 1.51 GiB (78%)
Writing library                  : x264 core 105


Format                           : AC-3
Duration                         : 2h 6mn
Bit rate                         : 448 Kbps
Channel(s)                       : 6 channels
Channel positions                : Front: L C R, Side: L R, LFE
Sampling rate                    : 48.0 KHz
Bit depth                        : 16 bits
Stream size                      : 406 MiB (20%)
Language                         : English

Text #1
Language                         : English

Text #2
Language                         : Dutch

Text #3
Language                         : Swedish

Text #4
Language                         : Finnish

Text #5
Language                         : Norwegian

Text #6
Language                         : Danish

Text #7
Language                         : Portuguese

Text #8
Language                         : Polish

Text #9
Language                         : Greek

Text #10
Language                         : Czech

Text #11
Language                         : Romanian

Menu
00:00:00.000                     : Chapter  1
00:05:42.920                     : Chapter  2
00:07:27.800                     : Chapter  3


